<?xml version="1.0" encoding="UTF-8" standalone="no"?>
<!DOCTYPE svg PUBLIC "-//W3C//DTD SVG 1.1//EN" "http://www.w3.org/Graphics/SVG/1.1/DTD/svg11.dtd">
<svg width="100%" height="100%" viewBox="0 0 371 314" version="1.1" xmlns="http://www.w3.org/2000/svg" xmlns:xlink="http://www.w3.org/1999/xlink" xml:space="preserve" style="fill-rule:evenodd;clip-rule:evenodd;stroke-linecap:round;stroke-linejoin:round;stroke-miterlimit:1.5;">
    <g transform="matrix(1,0,0,1,-76.5786,-77.5073)">
        <g>
            <g transform="matrix(0.604251,0,0,0.707865,85.4957,32.8682)">
                <ellipse cx="291.908" cy="284.169" rx="305.838" ry="220.401" style="stroke:black;stroke-width:1.52px;"/>
            </g>
            <g transform="matrix(0.593692,0,0,0.593692,100.666,83.0994)">
                <path d="M442.906,52.156C442.1,52.176 441.289,52.232 440.469,52.344C427.345,54.134 417.476,65.814 409.999,85.219C404.006,100.771 399.189,122.307 396.061,151.719C364.038,129.624 332.295,122.176 300.781,125.874L273.811,65.811L248.843,137.093L198.5,107.28L197.687,170.344L151.125,172.094L163.655,202.656C146.151,218.902 128.692,237.059 111.25,256.5L18.437,211.125L63.313,287.031L26.843,326.126L63.125,328.906L22.655,388.782L130.719,323.877L218.279,366.407L168.529,383.783L204.093,397.597L171.53,419.817L223.687,420.784L219.094,467.629L278.406,395.599L365,437.654L496.063,270.47C492.193,263.84 488.328,257.496 484.469,251.375L365.093,402.345L360.373,408.312L353.593,404.906L309.249,382.686L317.624,365.969L355.154,384.779L473.69,234.907C453.532,205.277 433.503,182.317 413.596,165.251C416.556,130.731 421.706,106.898 427.471,91.938C433.831,75.428 440.355,71.232 442.971,70.876C444.277,70.698 445.601,70.923 447.721,72.406C449.839,73.891 452.414,76.699 454.721,80.596C459.303,88.339 462.726,100.158 462.938,112.282C454.988,115.997 449.501,124.086 449.501,133.439C449.501,146.317 459.937,156.752 472.814,156.752C485.69,156.752 496.126,146.317 496.126,133.439C496.126,123.687 490.124,115.325 481.626,111.846C481.342,96.616 477.401,82.226 470.813,71.096C467.491,65.481 463.467,60.618 458.438,57.096C454.668,54.454 450.116,52.606 445.313,52.221C444.513,52.156 443.713,52.138 442.907,52.157L442.906,52.156ZM390.562,210.312C393.709,210.187 396.922,210.548 400.125,211.406C403.179,212.226 405.997,213.46 408.563,215.031C408.423,215.031 408.295,215.001 408.156,215.001C398.234,215.001 390.186,221.637 390.186,229.814C390.188,237.99 398.234,244.626 408.156,244.626C414.659,244.626 420.316,241.766 423.469,237.501C424.114,241.741 423.931,246.185 422.749,250.595C418.174,267.669 400.639,277.795 383.561,273.22C366.487,268.644 356.331,251.105 360.905,234.03C364.622,220.158 376.927,210.854 390.561,210.312L390.562,210.312ZM295.187,221.469L313.094,226.779L300.344,269.843L347.781,308.687L335.939,323.155L283.689,280.375L278.907,276.437L280.657,270.499L295.187,221.469ZM250.25,247.155L268.188,252.468L259.313,282.404L292.75,309.779L280.906,324.249L242.656,292.936L237.844,288.999L239.624,283.029L250.25,247.155Z" style="fill:white;fill-rule:nonzero;"/>
            </g>
        </g>
    </g>
</svg>
